<?xml version="1.0" encoding="UTF-8"?>
<svg id="Calque_2" data-name="Calque 2" xmlns="http://www.w3.org/2000/svg" viewBox="0 0 18.04 9.29">
  <defs>
    <style>
      .cls-1 {
        fill: #d5b4df;
        stroke-width: 0px;
      }
    </style>
  </defs>
  <g id="Calque_1-2" data-name="Calque 1">
    <path id="_1900" data-name="1900" class="cls-1" d="m4.45,5.37c.98.39,1.95.45,2.73-.16.23-.18.43-.41.63-.63.28-.31.59-.61.96-.83,1.85-1.09,3.43.93,4.7,1.98,1.51,1.25,2.86,2.57,4.58,3.57-.36-.21-.49-.69-.75-.99-.3-.36-.64-.71-.96-1.06-.73-.79-1.58-1.45-2.4-2.15-.53-.46-1.06-.93-1.52-1.46-.36-.42-.99-1.1-1.17-1.61-.1-.3-.02-.63-.11-.92-.15-.54-.74-.8-1.28-.94C8.77-.1,7.73.04,6.62.03c-1.97,0-4.16.18-6.02.85-1.22.44-.3,1.56.33,2.07,1.11.9,2.17,1.87,3.52,2.41Z"/>
  </g>
</svg>