<?xml version="1.0" encoding="UTF-8"?>
<svg id="Calque_2" data-name="Calque 2" xmlns="http://www.w3.org/2000/svg" viewBox="0 0 153.68 75.27">
  <defs>
    <style>
      .cls-1 {
        fill: #d5b4df;
        stroke-width: 0px;
      }
    </style>
  </defs>
  <g id="Calque_1-2" data-name="Calque 1">
    <path id="_1925" data-name="1925" class="cls-1" d="m.03,18.56c.08-2.4.32-4.75.78-6.99.6-2.92,1.95-5.78,4.27-7.65C9.53.33,16.63.36,22.04.12c9.61-.43,22.02.4,31.6,1.1,15.07,1.09,27.31,2.61,42.43,2.61,7.39-.05,14.77-.53,22.15-.92,7.22-.37,14.46-.27,21.68-.05.74.02,1.47.05,2.21.07,2.8.1,5.7-.03,8.49.31,1.96.23,3.54,1.17,2.96,3.39-2.47,9.65-10.59,17.84-18.3,23.64-1.49,1.12-3.02,2.18-4.58,3.21-1.45.96-2.89,2.14-4.61,2.53-3.77.86-5.97-1.64-7.68-4.58-2.66-4.6-5.29-9.21-7.94-13.81-3.63-6.3-11.48-16.09-19.61-10.82-3.92,2.54-7.43,6.33-10.64,9.69-2.85,2.98-5.71,5.97-8.56,8.95-4.75,4.97-8.93,10.41-13.38,15.65-4.58,5.39-9.29,10.67-14.13,15.83-4.52,4.82-9.03,9.96-14.07,14.25-2.35,2-5.2,4.07-8.42,4.11-3.41.04-5.58-2.45-7.33-5.07-1.66-2.48-3.13-5.08-4.4-7.78-3.71-7.88-6.44-16.24-8.03-24.81C.79,31.68-.18,24.95.03,18.56Z"/>
  </g>
</svg>