<?xml version="1.0" encoding="UTF-8"?>
<svg id="Calque_2" data-name="Calque 2" xmlns="http://www.w3.org/2000/svg" viewBox="0 0 260 244.39">
  <defs>
    <style>
      .cls-1 {
        fill: #d5b4df;
        stroke-width: 0px;
      }
    </style>
  </defs>
  <g id="Calque_1-2" data-name="Calque 1">
    <path id="_1950" data-name="1950" class="cls-1" d="m253.71,13.06c-6.59.1-12.03-2.78-17.97-4.4-2.71-.74-6.11-2.01-6.72,2.99-.39,3.1-3.09,2.29-5.02,2.07-23.2-2.71-46.45-5.21-69.6-8.35C132.57,2.41,110.65.78,88.65,0c-7.91-.1-15.74.8-23.61,1.31-23.34,1.49-39.7,11.58-48.16,34.33C5.76,65.61,2.45,96.84.5,128.29c-1.3,21.12-.1,42.33,4.22,63.02,6.76,32.38,12.48,39.97,43.31,47.68,16.11,4.04,32.59,4.21,48.95,5.2,14.59.88,29.14-1.34,43.7-2.43,25.36-1.91,49.97-7.01,73.78-15.9,14.7-5.49,24.71-15.26,30.62-30.27,7.28-18.5,9.49-37.85,10.39-57.14,1.83-38.92-1.59-78.05,4.41-116.85.71-4.67-2.03-8.61-6.18-8.54Zm-21.6.95c2.79-2.79,9.93,0,9.93,0h-9.93Z"/>
  </g>
</svg>