<?xml version="1.0" encoding="UTF-8"?>
<svg id="Calque_2" data-name="Calque 2" xmlns="http://www.w3.org/2000/svg" viewBox="0 0 740.4 654.02">
  <defs>
    <style>
      .cls-1 {
        fill: #d3b1dd;
        stroke-width: 0px;
      }
    </style>
  </defs>
  <g id="Calque_1-2" data-name="Calque 1">
    <path id="_1975" data-name="1975" class="cls-1" d="m605.71,7.19c21.26,19.62,46.75,33.79,68.38,52.89,27.8,24.55,53.43,50.65,62.93,88.45,5.98,23.79,3.06,47.08-1.4,70.53-16.19,85.15-42.71,167.37-71.05,249.03-16.67,48.02-34.65,95.59-58.64,140.59-7.47,14.01-15.01,28.03-26.75,39.2-9.34,8.89-15.83,8.22-23.14-2.62-7.1-10.55-10.15-22.67-13.09-34.71-10.43-42.83-16.69-86.41-23.3-129.94-6.37-41.95-12.48-83.94-20.26-125.68-8.23-44.12-16.9-88.12-30.83-130.85-6.4-19.62-13.88-38.86-24.11-56.92-13.98-24.69-35.42-40.93-59.94-53.83-35.13-18.49-72.77-30.04-110.83-40.52-60.62-16.68-122.62-26.65-184.3-38.18-24.61-4.6-49.44-8.09-73.73-14.33-3.32-.85-6.56-2.02-9.87-2.95C3.12,16.58.18,15.47,0,12.62c-.22-3.66,3.48-3.23,5.89-3.86,9.22-2.38,18.62-3.8,28.11-4.31,61.99-3.3,124.04-1.82,186.06-1.29,25.14.22,50.33.47,75.46,1.43,44.46,1.7,88.95,2.14,133.42,3.26,42.35,1.06,84.67,2.82,127.04,2.81,3.74,0,8.02,1.18,7.93-5.16-.03-1.95,1.74-4.49,4.12-4.16,11.47,1.57,23.73-5.68,34.55,3.01-1.3,4.84-4.95,2.67-7.62,2.26-7.61-1.19-15.21-3.34-20.82,2.39,9.66-.66,20.56-2.31,31.57-1.82Z"/>
  </g>
</svg>