<?xml version="1.0" encoding="UTF-8"?>
<svg id="Calque_2" data-name="Calque 2" xmlns="http://www.w3.org/2000/svg" viewBox="0 0 912.33 755.27">
  <defs>
    <style>
      .cls-1 {
        fill: #d3b1dd;
        stroke-width: 0px;
      }
    </style>
  </defs>
  <g id="Calque_1-2" data-name="Calque 1">
    <path id="_2000" data-name="2000" class="cls-1" d="m910.71,754.15c-2.7,2.48-5.71.24-8.43-.95-22.19-9.73-40.71-25.07-59.94-39.29-19.94-14.74-39.78-29.67-59.67-44.51-25.47-19.34-50.69-39.01-76.46-57.92-18.27-13.39-37.28-25.78-55.95-38.63-2.48-1.72-4.94-3.5-8.08-3.89-1.99-.73-4.63-.66-4.51-3.83-8.7-4.4-17.79-7.79-26.95-11.09-18.98-6.86-34.58-.68-48.28,11.84-14.29,13.05-26.91,27.92-44.89,36.57-6.95,3.34-14.47,4.14-21.5,6.86-10.38.09-20.75.09-31-1.92-21.04-3.23-42.13-6.3-63.14-9.82-3.9-.66-7.76-.93-11.64-1.11-18.61-3.63-37.15-7.52-55.82-10.82-54.23-9.58-107.92-21.48-160.72-37.21-36.4-10.86-72.28-23.1-105.78-41.26-17.85-9.67-34.69-20.53-48.05-36.75-12.35-15.02-15.93-32.43-18.05-50.38-5.18-43.78,1.39-86.91,8.65-129.92,9.96-59.07,26.7-116.2,49.32-171.62,13.83-33.85,29.87-66.58,54.16-94.28C126.36,10.15,141.01-2.06,161.61.29c15.11,1.72,27.66,10.42,40.27,18.32,18.59,11.64,35.04,26.09,51.26,40.67,23.5,21.09,46.24,43.08,67.94,66.06,32.28,34.16,63.98,68.85,94.39,104.74,24.49,28.9,49.76,57.17,74.49,85.91,27.48,31.95,54.51,64.27,82.13,96.11,12.54,14.43,25.98,28.05,39.03,42.04,1,1.3,4.98,1.48,3.43,3.7h.16c10.26,8.39,18.48,19.14,30.77,26.68-1.04-10.11-9.91-15.53-12.5-24.01h-.18c-3.94-.53-1.73-4.54-3.56-6.3-2.96-6.26-3.41-9.94,5.71-11.59,14.78-2.65,28.59-9.25,44.27-8.87,15.84.38,28.9,5.82,40.05,16.51,21.79,20.89,38.74,45.73,56.09,70.16,44.58,62.81,86.97,127.06,123.77,194.83,5.22,9.63,9.18,19.8,12.32,30.27.86,2.85,1.72,6.35-.75,8.61Z"/>
  </g>
</svg>